<?xml version="1.0" encoding="UTF-8" standalone="no"?>
<!DOCTYPE svg PUBLIC "-//W3C//DTD SVG 1.1//EN" "http://www.w3.org/Graphics/SVG/1.1/DTD/svg11.dtd">
<svg width="100%" height="100%" viewBox="0 0 250 60" version="1.1" xmlns="http://www.w3.org/2000/svg" xmlns:xlink="http://www.w3.org/1999/xlink" xml:space="preserve" xmlns:serif="http://www.serif.com/" style="fill-rule:evenodd;clip-rule:evenodd;stroke-linejoin:round;stroke-miterlimit:2;">
    <g transform="matrix(1.25244,0,0,1.25244,-25.7499,25.5431)">
        <g transform="matrix(31,0,0,31,27.923,15.894)">
            <path d="M0.566,0.036L0.566,-0.136L0.353,-0.245L0.566,-0.395L0.566,-0.562L0.466,-0.612L0.077,-0.344L0.077,-0.214L0.566,0.036ZM0.456,-0.031L0.087,-0.22L0.087,-0.339L0.456,-0.593L0.456,-0.45L0.233,-0.293L0.456,-0.18L0.456,-0.031Z" style="fill-rule:nonzero;"/>
        </g>
        <g transform="matrix(31,0,0,31,49.933,15.894)">
            <path d="M0.926,-0.217L0.926,-0.735L0.557,-0.735L0.557,-0.808L0.232,-0.808L0.232,-0.735L0.074,-0.735L0.074,-0.443L0.217,-0.443C0.217,-0.35 0.156,-0.249 0.005,-0.194L0.222,0.083C0.354,0.025 0.444,-0.065 0.497,-0.173L0.549,0.074C0.818,0.074 0.926,0.038 0.926,-0.217ZM0.615,-0.257C0.615,-0.227 0.583,-0.216 0.515,-0.214C0.543,-0.286 0.556,-0.364 0.556,-0.443L0.615,-0.443L0.615,-0.257Z" style="fill-rule:nonzero;"/>
        </g>
        <g transform="matrix(31,0,0,31,80.933,15.894)">
            <path d="M0.98,-0.709C0.966,-0.746 0.944,-0.797 0.919,-0.84L0.839,-0.817C0.862,-0.771 0.884,-0.72 0.896,-0.681L0.98,-0.709ZM0.88,-0.678C0.866,-0.713 0.844,-0.764 0.819,-0.809L0.739,-0.786C0.764,-0.738 0.784,-0.691 0.796,-0.65L0.88,-0.678ZM0.95,-0.482L0.95,-0.684L0.787,-0.632C0.776,-0.667 0.763,-0.699 0.747,-0.735L0.539,-0.735C0.542,-0.762 0.543,-0.786 0.543,-0.807L0.178,-0.807C0.178,-0.693 0.103,-0.451 0.043,-0.358L0.43,-0.33C0.45,-0.36 0.468,-0.403 0.484,-0.453L0.586,-0.453C0.569,-0.316 0.5,-0.278 0.074,-0.278L0.104,0.074C0.685,0.074 0.95,0.013 0.95,-0.482Z" style="fill-rule:nonzero;"/>
        </g>
        <g transform="matrix(31,0,0,31,111.933,15.894)">
            <path d="M0.936,-0.555L0.936,-0.807L0.064,-0.807L0.064,-0.555L0.936,-0.555ZM0.936,-0.341L0.936,-0.535L0.065,-0.535L0.065,-0.283L0.604,-0.283C0.596,-0.246 0.533,-0.225 0.072,-0.225L0.092,0.074C0.778,0.074 0.936,0.015 0.936,-0.341Z" style="fill-rule:nonzero;"/>
        </g>
        <g transform="matrix(31,0,0,31,142.933,15.894)">
            <path d="M1.003,-0.711C0.989,-0.748 0.967,-0.799 0.942,-0.842L0.862,-0.819C0.885,-0.773 0.907,-0.722 0.919,-0.683L1.003,-0.711ZM0.903,-0.68C0.889,-0.715 0.867,-0.766 0.842,-0.811L0.762,-0.788C0.787,-0.74 0.807,-0.693 0.819,-0.652L0.903,-0.68ZM1.002,-0.043C0.964,-0.174 0.925,-0.381 0.918,-0.467L0.665,-0.431L0.665,-0.478L0.95,-0.478L0.95,-0.679L0.81,-0.634C0.799,-0.669 0.787,-0.7 0.771,-0.735L0.665,-0.735L0.665,-0.807L0.365,-0.807L0.365,-0.735L0.074,-0.735L0.074,-0.478L0.365,-0.478L0.365,-0.254C0.365,-0.218 0.364,-0.208 0.326,-0.208C0.342,-0.295 0.352,-0.38 0.355,-0.43L0.092,-0.467C0.085,-0.381 0.049,-0.172 0.008,-0.038L0.273,0.016C0.284,-0.013 0.294,-0.051 0.303,-0.093L0.331,0.075C0.647,0.075 0.665,0.066 0.665,-0.175L0.665,-0.313C0.677,-0.203 0.699,-0.063 0.727,0.016L1.002,-0.043Z" style="fill-rule:nonzero;"/>
        </g>
        <g transform="matrix(31,0,0,31,179.513,15.894)">
            <path d="M0.573,-0.842L0.473,-0.892L0.333,-0.88L-0.06,0.085L0.04,0.135L0.18,0.123L0.573,-0.842ZM0.457,-0.88L0.073,0.063L-0.044,0.073L0.339,-0.87L0.457,-0.88Z" style="fill-rule:nonzero;"/>
        </g>
        <g transform="matrix(31,0,0,31,195.013,15.894)">
            <path d="M0.563,-0.197L0.563,-0.327L0.074,-0.578L0.074,-0.412L0.287,-0.299L0.074,-0.153L0.074,0.019L0.174,0.069L0.563,-0.197ZM0.453,-0.252L0.084,-0L0.084,-0.148L0.307,-0.3L0.084,-0.418L0.084,-0.561L0.453,-0.371L0.453,-0.252Z" style="fill-rule:nonzero;"/>
        </g>
    </g>
</svg>
